<svg width="200" height="200" version="1.1" xmlns="http://www.w3.org/2000/svg" xmlns:xlink="http://www.w3.org/1999/xlink">
    <g id="页面-1" stroke="none" stroke-width="1" fill="none" fill-rule="evenodd">
        <g id="group">
            <rect id="bg_w" x="0" y="0" width="200" height="200"></rect>
            <polygon id="bg_red" fill="#BA0F24" fill-rule="nonzero" points="44.17 31.27 44.17 40.35 40.68 40.35 40.68 31.27 33.53 31.27 36.93 40.35 33.22 40.35 31.06 34.3 30 34.3 30 175.31 174.04 175.31 174.04 31.27"></polygon>
            <polygon id="a_2" fill="#FFFFFF" fill-rule="nonzero" points="30 31.27 33.53 31.27 36.93 40.35 33.22 40.35 31.06 34.3 30 34.3"></polygon>
            <rect id="a_1" fill="#FFFFFF" fill-rule="nonzero" x="40.68" y="31.27" width="3.5" height="9.08"></rect>
            <path d="M33.53,31.27 L28.82,18.69 L24.14,18.69 L15.96,40.35 L19.58,40.35 L21.76,34.3 L30,34.3 L30,31.27 L33.53,31.27 L33.53,31.27 Z M26.26,21.88 L26.63,21.88 L30,31.27 L22.85,31.27 L26.25,21.88 L26.26,21.88 Z" id="a" fill="#BA0F24" fill-rule="nonzero"></path>
            <rect id="a_red" fill="#BA0F24" fill-rule="nonzero" x="40.68" y="18.69" width="3.5" height="12.58"></rect>
            <path d="M101.14,86.38 L98.53,86.38 L98.53,93.85 L95.84,93.85 L95.84,86.34 L93.43,86.34 L90.65,92.87 L92.98,92.87 L92.98,95.4 L104.9,95.4 C105.28,95.4 105.6,95.52 105.86,95.77 C106.12,96.01 106.25,96.33 106.25,96.71 L106.25,104.26 C106.25,104.5 106.17,104.74 106.03,104.95 C105.88,105.17 105.7,105.33 105.48,105.44 L100.62,107.85 L105.6,110.67 L104.29,113 L97.72,109.25 L88.7,113.7 L87.52,111.33 L94.95,107.66 L90.99,105.42 C90.53,105.15 90.3,104.77 90.3,104.28 L90.3,98.08 L88.01,98.08 L88.01,95.43 L90.3,95.43 L90.3,93.51 L87.93,92.49 L90.54,86.37 L88.05,86.37 L88.05,83.72 L95.84,83.72 L95.84,77.03 L98.53,77.03 L98.53,83.72 L100.94,83.72 L103.88,77.39 L106.33,78.53 L103.92,83.71 L106.53,83.71 L106.53,86.4 L104.04,86.4 L106.65,92.48 L104.16,93.54 L101.14,86.4 L101.14,86.38 Z M90.61,83.4 L88.28,78.5 L90.69,77.36 L93.06,82.22 L90.61,83.4 Z M103.55,103.4 L103.55,98.05 L92.98,98.05 L92.98,103.48 L97.8,106.26 L103.55,103.4 L103.55,103.4 Z M115.55,101.56 L107.55,114.17 L105.27,112.74 L114.13,98.82 L106.66,84.78 L109.03,83.52 L115.76,96.21 L119.43,90.5 L119.43,82.58 L107.84,82.58 C107.32,82.58 106.93,82.35 106.66,81.89 C106.42,81.43 106.43,80.97 106.7,80.5 L109.31,76.34 L111.6,77.77 L110.25,79.89 L124.33,79.89 L124.33,82.58 L122.13,82.58 L122.13,90.86 C122.13,91.16 122.05,91.41 121.89,91.59 L117.24,98.94 L124.59,112.73 L122.22,114 L115.57,101.55 L115.55,101.56 Z" id="t_1" fill="#FFFFFF" fill-rule="nonzero"></path>
            <path d="M130.4,113.56 L130.4,90.18 L130.24,90.42 L128,88.99 L132.45,82.09 L128.86,82.09 L128.86,79.4 L134.21,79.4 L136.13,76.46 L138.42,77.89 L137.44,79.4 L165.4,79.4 L165.4,82.09 L135.69,82.09 L133,86.21 L163.28,86.21 C163.66,86.21 163.98,86.34 164.24,86.6 C164.5,86.86 164.63,87.18 164.63,87.56 L164.63,112.17 C164.63,112.55 164.5,112.87 164.24,113.13 C163.98,113.39 163.66,113.52 163.28,113.52 L151.98,113.52 L151.98,110.83 L161.94,110.83 L161.94,104.42 L133.13,104.42 L133.13,113.56 L130.44,113.56 L130.4,113.56 Z M161.91,88.87 L133.1,88.87 L133.1,94.09 L161.91,94.09 L161.91,88.87 Z M133.1,101.72 L161.91,101.72 L161.91,96.78 L133.1,96.78 L133.1,101.72 Z" id="t_2" fill="#FFFFFF" fill-rule="nonzero"></path>
            <path d="M88.45,162.41 L88.45,159.76 L107.35,159.76 L107.35,148.78 L89.64,148.78 C89.23,148.78 88.91,148.63 88.66,148.33 C88.42,148.06 88.29,147.72 88.29,147.31 L89.02,137.52 C89.07,137.17 89.22,136.87 89.47,136.64 C89.72,136.41 90.01,136.29 90.37,136.29 L107.35,136.29 L107.35,129.03 L87.88,129.03 L87.88,126.38 L108.69,126.38 C109.07,126.38 109.39,126.5 109.65,126.75 C109.91,127 110.04,127.31 110.04,127.69 L110.04,137.61 C110.04,137.99 109.91,138.31 109.65,138.57 C109.39,138.83 109.07,138.96 108.69,138.96 L91.63,138.96 L91.1,146.1 L108.69,146.1 C109.07,146.1 109.39,146.23 109.65,146.49 C109.91,146.75 110.04,147.07 110.04,147.45 L110.04,161.08 C110.04,161.46 109.91,161.78 109.65,162.04 C109.39,162.3 109.07,162.43 108.69,162.43 L88.45,162.43 L88.45,162.41 Z M123.26,162.41 L120.57,162.41 L120.57,125.97 L123.26,125.97 L123.26,162.41 Z" id="t_3" fill="#FFFFFF" fill-rule="nonzero"></path>
            <path d="M130.85,161.96 L136.24,133.84 L128.81,133.84 L128.81,131.15 L136.73,131.15 L137.79,125.76 L140.4,126.25 L139.46,131.15 L163.46,131.15 C163.84,131.15 164.16,131.28 164.42,131.54 C164.68,131.8 164.81,132.12 164.81,132.5 L164.81,161.07 C164.81,161.45 164.68,161.76 164.42,162.01 C164.16,162.25 163.84,162.38 163.46,162.38 L146.16,162.38 L146.16,159.73 L162.16,159.73 L162.16,133.86 L138.94,133.86 L133.51,162.51 L130.86,161.98 L130.85,161.96 Z" id="t_4" fill="#FFFFFF" fill-rule="nonzero"></path>
        </g>
    </g>
</svg> 